<?xml version="1.0" encoding="UTF-8"?>
<!DOCTYPE svg PUBLIC "-//W3C//DTD SVG 1.1//EN" "http://www.w3.org/Graphics/SVG/1.1/DTD/svg11.dtd">
<!-- Creator: CorelDRAW 2021 (64-Bit) -->
<svg xmlns="http://www.w3.org/2000/svg" xml:space="preserve" width="8.5in" height="11in" version="1.1" style="shape-rendering:geometricPrecision; text-rendering:geometricPrecision; image-rendering:optimizeQuality; fill-rule:evenodd; clip-rule:evenodd"
viewBox="0 0 8500 11000"
 xmlns:xlink="http://www.w3.org/1999/xlink"
 xmlns:xodm="http://www.corel.com/coreldraw/odm/2003">
 <defs>
  <style type="text/css">
   <![CDATA[
    .str0 {stroke:#373435;stroke-width:6.94;stroke-linecap:round;stroke-linejoin:round;stroke-miterlimit:2.61313}
    .fil0 {fill:#ED3237}
    .fil1 {fill:#373435;fill-rule:nonzero}
   ]]>
  </style>
 </defs>
 <g id="Layer_x0020_1">
  <metadata id="CorelCorpID_0Corel-Layer"/>
  <path class="fil0" d="M3786.07 4064.43c2.48,0.87 2.15,-1.53 8,-12.28 6.78,-12.47 19.23,-38.67 25.9,-46.74 6.93,4.69 44.28,5.51 55.63,7.21l116.09 11.84c20.65,3.09 65.78,5.45 86.42,9.16l177.32 16.95c9.24,0.85 18.6,3.84 28.93,3.84 -1.13,6.74 -7.86,19.22 -10.84,25.17l-9.61 22.54c14.24,-20.63 53.36,-107.87 62.49,-134.04l24.79 -75.48c3.64,-12.67 6.69,-26.2 9.66,-39.96 9.7,-45.03 5.92,-97.74 -2.68,-139.33 -11.32,-54.74 -25.98,-104.59 -45.48,-155.75 -46.21,-121.21 -129.93,-279.7 -199.72,-389.15l-113.11 -167.21c-3.37,-4.95 -0.6,-3.86 -6.82,-5.81 24.51,42.91 50.87,71.05 71.48,119.35l9.28 24.63c4.15,12.19 7.02,23.49 10.31,37.22 24.04,100.4 -6.61,232.09 -37.72,323.17l-93.15 228.08c-13.8,32.14 -60.33,125.48 -75.14,154.51l-92.02 182.09zm0 0c-4.31,3.73 -12.17,21.54 -15.85,28.74l-95.08 184.4c-3.33,6.52 -14.02,25.34 -14.9,31.44 1.49,0.38 -1.35,4.28 2.97,-3.59l19.57 -36.7c12.93,-23.25 1.5,-10.21 35.97,-9.24 24.19,0.68 60.54,7.08 85.89,7.79l309.56 31.56c10.13,0.07 19.63,3.28 28.54,3.83 -4.53,11.32 -42.75,71.77 -42.04,74.72l41.59 -66.94c14.52,-22.76 26.8,-45.17 41.32,-67.93l40.91 -68.41c6.57,-11.56 37.3,-63.36 39.37,-71.99l9.61 -22.54c2.98,-5.95 9.71,-18.43 10.84,-25.17 -10.33,0 -19.69,-2.99 -28.93,-3.84l-177.32 -16.95c-20.63,-3.7 -65.77,-6.07 -86.42,-9.16l-116.09 -11.84c-11.35,-1.7 -48.7,-2.52 -55.63,-7.21 -6.67,8.07 -19.12,34.27 -25.9,46.74 -5.84,10.76 -5.52,13.15 -8,12.28zm391.17 631.18l-48.9 93.56c-30.43,59.32 -53.09,105.73 -52.94,192.51 0.15,88.61 40.69,184.59 90.5,250.91 5.13,6.83 16.52,19.7 23.51,24.17 20.04,12.8 -8.26,-22.67 -12.95,-62.19 -9.63,-80.97 24.69,-166.87 55.48,-236.6 16.39,-37.11 29.91,-60.78 49.46,-93.9l93.53 -146.11c-0.15,-0.38 -0.24,-1 -0.25,-1.22 -0.27,-6.38 3.02,-9.3 8.25,-17.59 2.87,-4.56 7.75,-14.59 10.98,-16.34 -24.19,0.42 -31.21,-1.35 -49.24,-1.98 -8.87,-0.31 -18.16,0.43 -27.03,0.13 -9.12,-0.31 -12.59,-2.13 -23.43,-2.06 -16.74,0.11 -94.02,2.8 -103.55,-1.62 -0.23,3.65 -3.19,7.49 -5.18,10.97 -0.61,1.07 -6.36,10.2 -7.23,7.47 -0.11,-0.36 -0.76,0.15 -1.01,-0.11zm58.06 -106.51c-0.76,6.02 -37.19,66.5 -43.04,77.76 -5.22,10.04 -10.45,18.35 -15.02,28.76 0.26,0.26 0.9,-0.26 1.01,0.11 0.87,2.74 6.62,-6.4 7.23,-7.47 1.99,-3.48 4.95,-7.33 5.18,-10.97 9.54,4.42 86.81,1.74 103.55,1.62 10.84,-0.07 14.31,1.75 23.43,2.06 8.87,0.31 18.16,-0.44 27.03,-0.13 18.03,0.63 25.06,2.4 49.24,1.98 -3.23,1.76 -8.1,11.79 -10.98,16.34 -5.23,8.29 -8.52,11.2 -8.25,17.59 0.01,0.22 0.1,0.84 0.25,1.22 3.84,-6.43 6.56,-9.52 10.57,-15.87 3.89,-6.14 6.43,-9.38 10.35,-15.48l49.99 -79.46c2.88,-4.56 6.57,-13.13 9.84,-16.09 -0.25,-0.56 -0.44,-1.33 -0.52,-1.81l3.96 -14.84c2.24,-3.2 0.8,-1.2 1.62,-1.78 -17.03,0.64 -34.98,0.09 -52.17,0.1l-75.64 -4.02c-11.29,-0.17 -71.82,2.11 -77.46,-1.9 -5.41,3.99 -13.14,28.7 -20.19,22.3zm-701.59 -7.28c-11.96,21.65 -28.66,112.46 -32.73,142.48 -2.02,14.89 -3.43,29.7 -4.28,44.44l0 66.23c6.48,113.52 45.8,220.2 104.56,312.05 53.65,83.85 128.69,158.98 202.97,217.67l48.62 35.71c69.05,48.29 135.16,85.81 212.72,115.51 5.96,2.28 10.63,3.62 14.2,4.19l6.48 0c9.97,-2.67 -3.21,-21.28 -14.6,-34.99l-54.56 -74.11c-6.18,-8.96 -11.14,-16.51 -17.13,-25.28 -5.96,-8.72 -10.73,-16.73 -16.58,-25.93 -26.19,-41.14 -54.93,-98.16 -72.11,-146.24 -41.33,-115.68 -55.37,-246.7 -16.07,-384.07 3.37,-11.77 6.7,-22.96 10.08,-33.55 1.98,-6.23 3.32,-11.76 5.27,-17.49 8.15,-23.91 19.29,-58.93 28.6,-80.87l25.26 -62.13c-0.19,-0.43 -0.31,-1.09 -0.34,-1.38 -0.03,-0.28 -0.24,-1.03 -0.26,-1.37l6.58 -19.92c-7.1,-4.47 -40,-5.04 -51.67,-7l-53.63 -6.03c-11.81,-0.7 -17.54,-0.73 -28.39,-2.33l-187.61 -18.77c-10.24,-1.63 -16.82,-2.2 -27.97,-2.55 -8.3,-0.26 -18.26,-2.74 -25.56,-3.67l-53.46 -4.15c-0.83,1.82 -2.03,6.03 -2.64,7.33 -4.2,9 1.06,3.69 -5.77,6.23zm126.52 -272.8l-5.36 7.95c-1.74,3.34 -3.35,6.71 -4.98,9.91 -3.39,6.66 -6.96,13.27 -10.11,19.72 -6.72,13.76 -12.92,26.06 -19.96,39.71 -4.8,9.28 -37.02,71.14 -39.1,80.51l2.92 -2.4c3.04,-4.6 5.02,-11.58 10.64,-19.37 11.41,-0.65 17.89,0.11 27.07,1.66 10.29,1.74 17.07,1.17 28.4,2.19 8.12,0.73 16.31,3.56 25.24,3.85 48.63,1.62 118.24,14.28 164.97,15.71l53.94 5.86c10.29,1.74 17.07,1.17 28.4,2.19 8.11,0.73 16.31,3.56 25.24,3.85 12.19,0.41 17.36,0.72 28.39,2.31 7.9,1.14 19.22,0.91 28.24,2.43 10.04,1.68 17.2,3.08 27.83,3.14l-15.44 37.61 5.09 -7.7c2.01,-3.51 3.16,-6.05 5.08,-9.83l73.95 -130.94c-0.71,-2.95 37.51,-63.4 42.04,-74.72 -8.9,-0.56 -18.41,-3.76 -28.54,-3.83l-309.56 -31.56c-25.36,-0.7 -61.7,-7.11 -85.89,-7.79 -34.47,-0.97 -23.04,-14.01 -35.97,9.24l-19.57 36.7c-4.31,7.87 -1.48,3.97 -2.97,3.59zm804.59 666.68c-5.51,3.39 -4.92,4.65 -8.77,10.31 -32.59,47.89 -47.21,72.16 -71.58,125.14 -37.21,80.91 -56.65,195.7 -56.65,290.59 0,9.88 -0.62,69.04 13.46,69.04 6.91,-2.17 9.23,-7.7 12.36,-15.09 3.33,-7.88 5.66,-11.3 8.97,-19.07 28.43,-66.71 37.33,-70.07 72.63,-121.95l89 -104.74c9.02,-10.59 17.04,-17.91 26.06,-28.62l130.44 -142.94 47.5 -64.33 -3.36 -4.54 -208.68 -19.66c-10.1,-0.08 -19.61,-3.23 -28.64,-3.95 -1.69,3.1 -22.72,29.81 -22.74,29.81zm-884.1 -508.88c-9.6,13.61 -44.03,97.81 -47.01,115.01 6.83,-2.54 1.57,2.77 5.77,-6.23 0.61,-1.3 1.81,-5.51 2.64,-7.33l53.46 4.15c7.3,0.93 17.26,3.42 25.56,3.67 11.15,0.34 17.73,0.92 27.97,2.55l187.61 18.77c10.85,1.6 16.58,1.64 28.39,2.33l53.63 6.03c11.66,1.96 44.57,2.53 51.67,7l-6.58 19.92c0.02,0.34 0.23,1.09 0.26,1.37 0.03,0.29 0.15,0.95 0.34,1.38 2.88,-5.27 3.78,-7.98 6.15,-13.5l32.63 -68.24c3.27,-6.7 11.8,-20.7 13.37,-27.85l15.44 -37.61c-10.63,-0.06 -17.8,-1.46 -27.83,-3.14 -9.02,-1.52 -20.34,-1.29 -28.24,-2.43 -11.02,-1.59 -16.19,-1.91 -28.39,-2.31 -8.93,-0.3 -17.13,-3.12 -25.24,-3.85 -11.33,-1.02 -18.11,-0.45 -28.4,-2.19l-53.94 -5.86c-46.74,-1.43 -116.34,-14.09 -164.97,-15.71 -8.93,-0.3 -17.13,-3.12 -25.24,-3.85 -11.32,-1.02 -18.11,-0.44 -28.4,-2.19 -9.18,-1.55 -15.66,-2.3 -27.07,-1.66 -5.63,7.79 -7.6,14.78 -10.64,19.37l-2.92 2.4zm1115.56 130.62c4.39,-2.12 4.93,-4.56 7.15,-12.31 8.79,5.28 47.45,5.42 54.45,6.6 6.15,1.03 14.15,2.56 19.26,3.04 6.62,0.61 12.94,-0.39 19.67,0.63l56.53 6.78c0.3,0.1 0.85,0.31 1.22,0.58 2.11,-4.43 1.43,-2.88 1.47,-9.74 2.03,4.61 1.36,3.44 1.45,10.39 0.13,-0.15 3.22,-2.39 3.67,-2.8l0 -31.67c-0.13,-99.14 -2.81,-154.09 -45.96,-255.33l-12.58 -26.67c-9.2,-17.89 -93.99,-183.61 -97.92,-186.98 4.41,22.21 37.79,65.34 43.6,140.21 4.6,59.32 3.15,118 -7,176.86 -11.37,65.89 -13.78,67.1 -26.84,122.38l-18.17 58.04zm-288.21 -304.2c1.4,1.65 4.12,-0.5 6.19,-7.31 4.3,5.11 6.29,3.08 14.5,3.1 9.21,0.02 9.96,1.76 18.47,2.06l114.45 1.91c2.77,1.59 2.35,1.3 3.9,4.19 7.19,-7.89 9.6,-57.19 9.57,-67.06 -0.04,-11.59 1.53,-28.11 1.35,-35.32 -2.55,-100.23 -12.38,-135.91 -41.49,-221.38 -11.47,-33.67 -55.55,-138.89 -69.22,-149.62 0.59,8.33 14.29,38.6 18.33,53.47 27.47,101.14 -0.1,222.7 -32.74,314.25 -12.26,34.39 -19.34,46.87 -31.59,75.39l-11.7 26.32zm168.75 530.57c-2.54,0.19 -5.39,5.02 -7.17,7.31 -3.39,4.39 -3.75,4.71 -7,9.61l-95.24 129.01c-0.26,0.47 -0.97,1.9 -1.19,2.35 -1.39,2.97 -0.55,1.03 -1.41,3.59 0.01,0 21.05,-26.71 22.74,-29.81 9.03,0.72 18.54,3.87 28.64,3.95l208.68 19.66 3.36 4.54 19.47 -28.76c14.43,-22.57 36.07,-59.29 47.46,-84.53 3.63,-8.05 3.14,-2.92 2.28,-9.3 1.87,-15.57 7.82,-18.02 5.32,-20.42 -3.07,-2.96 -95,-8.59 -106.37,-10.29l-79.3 -7.46c-7.95,-0.71 -17.97,-3.67 -26.27,-3.84 3.91,-2.25 -2.35,3.65 -3.95,5.86 -4.5,6.23 -2.75,6.08 -10.08,8.53zm76.02 -124.25c-2.42,10.35 -29.12,52.28 -35.88,62.83 -6.34,9.91 -37.21,53 -40.14,61.42 7.33,-2.44 5.58,-2.3 10.08,-8.53 1.59,-2.22 7.85,-8.11 3.95,-5.86 8.3,0.18 18.31,3.13 26.27,3.84l79.3 7.46c11.37,1.7 103.3,7.33 106.37,10.29 2.5,2.4 -3.46,4.85 -5.32,20.42 11.85,-9.3 37.44,-91.43 42.94,-113.11 1.99,-7.84 4.33,-11.81 2.26,-19.04 -4.35,-6.11 -10.82,-5.07 -20.2,-5l-47.17 -3.97c-6.39,-0.38 -17.04,-2.59 -22.45,-3.43 -8.09,-1.25 -15.84,0.06 -24.12,-1.33 -22.5,-3.76 -29.18,-2.58 -46.18,-4.94 -8.61,-1.2 -14.2,-2.14 -23.98,-2.14 0.65,-3.75 0,0.98 -1.05,1.27l-4.67 -0.17zm-356.98 -208.36c-5.2,6.96 -9.57,15.52 -14.67,23.51 -5.41,8.48 -9.26,15.52 -14.65,24.25 -6.43,10.42 -25.9,44.55 -31.24,50.15 7.04,6.41 14.78,-18.3 20.19,-22.3 5.64,4.01 66.17,1.73 77.46,1.9l75.64 4.02c17.19,-0.01 35.13,0.54 52.17,-0.1 -0.81,0.57 0.62,-1.42 -1.62,1.78l-3.96 14.84c0.08,0.48 0.27,1.25 0.52,1.81 3.09,-7.18 5.52,-10.37 8.33,-15.87 2.77,-5.41 4.81,-8.89 7.78,-14.54 3.61,-6.87 12.86,-24.08 14.17,-30.82 -1.06,-5.27 21.09,-46.84 23.08,-60.63 -6.38,4.62 -12.91,0.25 -21.36,-0.06 -21.4,-0.79 -57.78,2.3 -75.15,-0.77 -18.49,-3.27 -63.05,-2.64 -84.83,-2.97l-10.32 -2.02c-4.94,7.51 -13.29,25.05 -21.54,27.82zm71.44 -121.03l-71.44 121.03c8.25,-2.78 16.6,-20.31 21.54,-27.82l10.32 2.02c21.78,0.33 66.34,-0.3 84.83,2.97 17.37,3.07 53.75,-0.02 75.15,0.77 8.45,0.31 14.98,4.69 21.36,0.06 -1.99,13.79 -24.14,55.36 -23.08,60.63 5.27,-6.87 12.73,-25.81 16.26,-34.09 5.52,-12.94 10.51,-24.37 15.73,-36.79 4.36,-10.39 26.21,-69.73 26.89,-78.5l2.77 -21.52 -82.46 -3.36c-17.35,-2.82 -76.22,2.44 -84.03,-2.56 -1.34,3.91 -10.12,21.4 -13.84,17.14zm328.98 227.27c-3.48,7.4 -6.01,17.39 -9.52,25.88 -3.75,9.09 -6.25,16.67 -10.1,25.63 -8.04,18.71 -13.89,33.22 -23.82,50.61l4.67 0.17c1.05,-0.28 1.69,-5.02 1.05,-1.27 9.78,0 15.37,0.94 23.98,2.14 17,2.36 23.69,1.18 46.18,4.94 8.28,1.39 16.02,0.08 24.12,1.33 5.41,0.83 16.06,3.05 22.45,3.43l47.17 3.97c9.38,-0.07 15.85,-1.1 20.2,5 2.93,-2.71 3.17,-0.99 5.04,-11.95 4.35,-25.52 13.02,-81.99 13.46,-106.74 -0.44,0.41 -3.53,2.65 -3.67,2.8 -0.09,-6.95 0.57,-5.77 -1.45,-10.39 -0.04,6.86 0.64,5.31 -1.47,9.74 -0.38,-0.27 -0.93,-0.48 -1.22,-0.58l-56.53 -6.78c-6.73,-1.02 -13.05,-0.02 -19.67,-0.63 -5.11,-0.47 -13.12,-2 -19.26,-3.04 -7,-1.18 -45.66,-1.31 -54.45,-6.6 -2.22,7.76 -2.76,10.19 -7.15,12.31zm-288.21 -304.2c-3.04,3.29 -7.18,12.77 -9.68,17.64l-25.45 49c-2.37,4.3 -3.41,5.35 -5.65,10.29 3.72,4.26 12.5,-13.24 13.84,-17.14 7.81,4.99 66.68,-0.27 84.03,2.56l82.46 3.36 -2.77 21.52c4.39,-6.86 9.81,-28.94 12.39,-39.17 2.44,-9.7 10.09,-35.87 8.33,-44.1 -1.54,-2.9 -1.13,-2.6 -3.9,-4.19l-114.45 -1.91c-8.51,-0.3 -9.26,-2.04 -18.47,-2.06 -8.21,-0.02 -10.2,2.02 -14.5,-3.1 -2.07,6.81 -4.79,8.95 -6.19,7.31zm296.62 -193.3l-0.93 -4.24 0.93 4.24z"/>
  <path class="fil1 str0" d="M3529.91 6021.9l0 -98.61 163.09 0 0 232.81c-15.82,24.04 -38.81,45.1 -68.96,63.43 -30.07,18.2 -60.57,27.3 -91.51,27.3 -39.24,0 -73.42,-12.77 -102.61,-38.44 -29.11,-25.68 -51.05,-62.49 -65.72,-110.17 -14.69,-47.68 -22.02,-99.7 -22.02,-155.8 0,-60.85 8.21,-114.91 24.56,-162.31 16.43,-47.27 40.38,-83.67 71.93,-108.94 24.13,-19.43 54.02,-29.07 89.85,-29.07 46.58,0 83.03,15.22 109.24,45.64 26.14,30.56 43,72.54 50.52,126.33l-75.52 22c-5.24,-28.66 -15.2,-51.35 -29.8,-68.05 -14.5,-16.57 -32.68,-24.86 -54.53,-24.86 -33.04,0 -59.35,16.3 -78.84,49.04 -19.49,32.74 -29.28,81.23 -29.28,145.48 0,69.41 9.88,121.43 29.63,156.07 19.84,34.64 45.71,52.02 77.78,52.02 15.82,0 31.73,-4.89 47.63,-14.54 16,-9.64 29.63,-21.46 41.08,-35.31l0 -74.03 -86.53 0zm378.97 214.34l0 -583.54 258 0 0 98.61 -181.97 0 0 138.55 157.32 0 0 98.61 -157.32 0 0 247.76 -76.04 0zm466.02 0l0 -583.54 258.01 0 0 98.61 -181.97 0 0 138.55 157.32 0 0 98.61 -157.32 0 0 247.76 -76.04 0zm550.44 0l0 -484.92 -111.18 0 0 -98.61 297.86 0 0 98.61 -110.65 0 0 484.92 -76.04 0z"/>
 </g>
</svg>
